<?xml version="1.0" encoding="UTF-8"?>
<svg id="Layer_1" data-name="Layer 1" xmlns="http://www.w3.org/2000/svg" viewBox="0 0 960 960">
    <defs>
        <style>
            .cls-1 {
            fill: #fff;
            }

            .cls-2 {
            fill: #ff3e3c;
            }
        </style>
    </defs>
    <path class="cls-2" d="M231.55,29.95c185.1,82.94,369.32,168.71,553.67,253.67,38.18,17.58,57.83,33.03,58.39,75.6,.5,41.36,.5,116.81,0,226.35-.25,49.16-22.23,66.31-66.18,87.34-182.3,87.23-364.66,174.24-547.08,261.01-45.21,21.47-93.43,5.27-109.57-43.26-3.31-10-4.9-27.31-4.77-51.93,2.01-333.24,2.43-562.57,1.26-687.98-.44-48.98-7.28-133.05,66.62-133.99,11.76-.17,27.65,4.23,47.66,13.19Zm82.32,472.11c-5.86,.21-11.2-.54-16.01-2.26-3.68-1.3-7.37-4.52-11.05-9.67-20.47-28.51-52.68-25.62-77.8-51.24-1.19-1.21-3.14-1.23-4.35-.04-.59,.57-.92,1.36-.92,2.18v36.23c0,2.18,.92,3.83,2.76,4.96l7.16,4.46c2.01,1.26,3.39,3.01,4.14,5.27l9.1,28.51c.63,2.05,1.97,3.47,4.02,4.27,13.63,5.34,37.23,30.52,25.43,46.53-1.13,1.51-1.76,3.18-1.88,5.02-2.57,30.26,54-8.48,65.36-18.77,1.59-1.47,1.57-2.93-.06-4.4l-14.88-13.31c-2.34-2.07-2.56-5.64-.49-7.98,.39-.45,.86-.83,1.37-1.13,9.5-5.53,13.73-13.71,12.68-24.55-.21-2.09,.44-3.85,1.95-5.27l8.66-8.35c1.51-1.42,3.29-2.07,5.34-1.95,15.99,1.09,31.39-.88,46.21-5.9,2.34-.8,4.6-.59,6.78,.63,12.35,6.95,25.62,10.65,39.81,11.11,2.26,.04,4.19,.88,5.78,2.51,13.31,13.75,26.62,1.26,42.45,4.65,2.22,.5,4.31,.19,6.28-.94l96-55.19c2.85-1.61,3.99-5.15,2.64-8.16l-11.55-25.99c-.8-1.72-.67-3.37,.38-4.96,6.74-10.13,7.18-20.13,1.32-30.01-1.26-2.05-3.08-3.06-5.46-3.01-6.49,.08-12.01-1.93-16.58-6.03-1.72-1.55-2.32-3.45-1.82-5.71,4.23-20.05-1-36.56-15.7-49.54-1.67-1.47-2.72-3.29-3.14-5.46-6.4-33.22-14.06-80.37-52.62-89.85-1.47-.33-2.32,.23-2.57,1.7-4.08,21.79,12.68,34.22,30.77,48.16,1.93,1.55,1.9,3.06-.06,4.52l-16.89,12.62c-2.89,2.15-6.97,1.58-9.11-1.29-.19-.25-.35-.51-.5-.78-13.48-24.91-32.82-43.45-58.02-55.63-2.02-.95-3.81-2.35-5.21-4.08-16.45-19.97,9.17-19.72,19.28-22.35,1.88-.46,3.04-1.63,3.45-3.52,.75-3.45-3.08-5.09-6.22-5.71-11.89-2.22-20.76-8.46-26.62-18.71-1.13-1.97-2.66-3.58-4.58-4.83l-44.45-28.95c-2.01-1.3-4.02-1.3-6.03,0l-10.11,6.47c-1.63,1.05-3.24,1.05-4.83,0-18.71-11.93-35.92-3.14-53.94,5.02-2.13,.96-4.25,.94-6.34-.06l-31.39-15.13c-1.72-.84-3.5-1-5.34-.5-9.5,2.51-19.13,4.44-28.88,5.78-2.55,.38-3.83,1.86-3.83,4.46v41.38c0,2.39,1.15,3.27,3.45,2.64l13.69-3.64c3.22-.84,4.83,.42,4.83,3.77v11.3c0,2.18,.75,4.06,2.26,5.65l28.19,29.64c1.26,1.3,2.51,1.32,3.77,.06l1.38-1.38c1.51-1.51,1.99-3.31,1.44-5.4l-3.39-13c-.59-2.34,.31-3.68,2.7-4.02l1.82-.25c2.93-.38,4.77,.88,5.53,3.77,3.73,14.11,13,22.37,27.82,24.8,2.34,.38,3.87-.57,4.58-2.83l2.01-6.59c.88-2.85,3.91-4.44,6.76-3.55,.73,.23,1.4,.6,1.97,1.11l28.51,25.05c2.39,2.09,2.39,4.19,0,6.28l-13.56,11.8c-1.53,1.36-1.66,3.7-.3,5.23,.48,.54,1.11,.92,1.8,1.11,13.19,3.39,41.94,13.88,39.37,31.14-.33,2.39-1.61,4.04-3.83,4.96l-23.04,9.42c-1.31,.55-1.93,2.06-1.38,3.37,.27,.64,.79,1.15,1.44,1.4,3.35,1.34,5.99,.88,7.91-1.38,1.72-2.01,3.75-2.43,6.09-1.26,4.02,2.01,38.49,22.86,32.71,28.19-1.34,1.26-2.57,1.17-3.7-.25-24.93-31.96-56.2,2.01-58.52,29.26-.17,1.76-.92,3.2-2.26,4.33l-19.09,16.01c-2.22,1.8-2.62,3.96-1.19,6.47,2.64,4.77,4.54,9.77,5.71,15.01,1.93,9,.61,9.52-3.96,1.57l-7.1-12.24c-1.09-1.93-2.72-2.95-4.9-3.08-13.31-.88-39.87-4.02-50.17,5.84-18.65,18.02,1.76,43.89,24.49,31.14,2.13-1.21,4.25-1.19,6.34,.06l2.13,1.32c1.88,1.17,2.18,2.64,.88,4.4l-4.65,6.22c-2.01,2.68-1.4,4.48,1.82,5.4l15.57,4.58c2.13,.59,3.37,1.99,3.7,4.21l2.13,15.57c.29,2.3,1.53,3.85,3.7,4.65l14.88,5.34c2.76,.96,2.68,1.51-.25,1.63Zm-31.58-209.78c10.21,3.68,17.69,10.3,22.42,19.84,.94,1.86,3.2,2.61,5.06,1.67,.81-.41,1.44-1.09,1.78-1.92,4.19-10.72,4.75-21.58,1.7-32.59-.67-2.3-.02-4.14,1.95-5.53,10.61-7.66,14-24.42,0-29.89-1.97-.75-3.64-.33-5.02,1.26-10.93,12.56-35.16,24.49-31.96,42.26,.42,2.43,1.78,4.06,4.08,4.9Zm324.37,13.44c-8.2,3.68-10.97,10.19-8.29,19.53,.84,2.8-.17,4.46-3.01,4.96l-11.55,2.07c-2.49,.47-4.13,2.86-3.66,5.35,.08,.41,.21,.81,.39,1.18l4.4,9.1c1,1.97,1.51,4.06,1.51,6.28,.17,20.47,6.53,38.91,19.09,55.32,.9,1.14,2.56,1.34,3.7,.44,.64-.5,1.01-1.26,1.01-2.07l.06-40.88c.04-2.39,1.23-3.81,3.58-4.27l10.67-2.01c1.8-.33,2.93-1.4,3.39-3.2,5.21-21.41-23.48-30.77-6.34-49.92,1.47-1.67,1.95-3.6,1.44-5.78-3.68-15.4-13.19-25.41-28.51-30.01-2.72-.84-3.7,.1-2.95,2.83,2.76,9.96,8.08,18.31,15.95,25.05,1.51,1.27,1.71,3.53,.44,5.04-.36,.43-.81,.76-1.32,.99ZM221.63,686.73c-28.44,13.81-49.54,4.46-75.28-7.35-2.59-1.18-5.64-.04-6.82,2.55-.3,.66-.46,1.37-.46,2.1l-.69,53.12c0,1.97,.69,3.68,2.07,5.15,34.35,35.79,69.13,23.42,108.44,4.58,268.53-128.76,436.7-209.19,504.51-241.3,39.37-18.59,79.3-30.58,65.17-85.58-1.2-4.67-5.96-7.48-10.63-6.27-.53,.14-1.05,.33-1.55,.56-194.14,92.55-391.18,178.95-584.75,272.44Zm1.38,125.83c-28,13.31-50.86,4.46-74.03-7.28-5.32-2.68-8.43-1.09-9.36,4.77-2.8,18.33-2.68,36.63,.38,54.88,.33,2.09,1.3,3.85,2.89,5.27,40.12,35.54,70.26,17.96,117.42-4.46,162.41-77.31,324.72-154.92,486.93-232.82,50.36-24.17,87.09-34.03,71.39-94.37-1.21-4.59-5.89-7.35-10.45-6.16-.53,.14-1.05,.33-1.54,.57-195.44,94.64-389.98,187.84-583.62,279.6Z"/>
    <path class="cls-1" d="M314.12,500.43l-14.88-5.34c-2.18-.8-3.41-2.34-3.7-4.65l-2.13-15.57c-.33-2.22-1.57-3.62-3.7-4.21l-15.57-4.58c-3.22-.92-3.83-2.72-1.82-5.4l4.65-6.22c1.3-1.76,1-3.22-.88-4.4l-2.13-1.32c-2.09-1.26-4.21-1.28-6.34-.06-22.73,12.75-43.14-13.12-24.49-31.14,10.3-9.86,36.86-6.72,50.17-5.84,2.18,.13,3.81,1.15,4.9,3.08l7.1,12.24c4.56,7.95,5.88,7.43,3.96-1.57-1.17-5.23-3.08-10.23-5.71-15.01-1.42-2.51-1.03-4.67,1.19-6.47l19.09-16.01c1.34-1.13,2.09-2.57,2.26-4.33,2.32-27.25,33.59-61.22,58.52-29.26,1.13,1.42,2.37,1.51,3.7,.25,5.78-5.34-28.69-26.18-32.71-28.19-2.34-1.17-4.37-.75-6.09,1.26-1.93,2.26-4.56,2.72-7.91,1.38-1.32-.52-1.98-2.01-1.46-3.33,.25-.65,.76-1.17,1.4-1.44l23.04-9.42c2.22-.92,3.5-2.57,3.83-4.96,2.57-17.27-26.18-27.75-39.37-31.14-1.98-.53-3.15-2.56-2.62-4.54,.19-.7,.57-1.32,1.11-1.8l13.56-11.8c2.39-2.09,2.39-4.19,0-6.28l-28.51-25.05c-2.24-1.97-5.65-1.76-7.62,.48-.5,.57-.88,1.24-1.11,1.97l-2.01,6.59c-.71,2.26-2.24,3.2-4.58,2.83-14.82-2.43-24.09-10.7-27.82-24.8-.75-2.89-2.6-4.14-5.53-3.77l-1.82,.25c-2.39,.33-3.29,1.67-2.7,4.02l3.39,13c.54,2.09,.06,3.89-1.44,5.4l-1.38,1.38c-1.26,1.26-2.51,1.23-3.77-.06l-28.19-29.64c-1.51-1.59-2.26-3.47-2.26-5.65v-11.3c0-3.35-1.61-4.6-4.83-3.77l-13.69,3.64c-2.3,.63-3.45-.25-3.45-2.64v-41.38c0-2.6,1.28-4.08,3.83-4.46,9.75-1.34,19.38-3.27,28.88-5.78,1.84-.5,3.62-.33,5.34,.5l31.39,15.13c2.09,1,4.21,1.03,6.34,.06,18.02-8.16,35.22-16.95,53.94-5.02,1.59,1.05,3.2,1.05,4.83,0l10.11-6.47c2.01-1.3,4.02-1.3,6.03,0l44.45,28.95c1.93,1.26,3.45,2.87,4.58,4.83,5.86,10.26,14.73,16.49,26.62,18.71,3.14,.63,6.97,2.26,6.22,5.71-.42,1.88-1.57,3.06-3.45,3.52-10.11,2.64-35.73,2.39-19.28,22.35,1.4,1.74,3.19,3.13,5.21,4.08,25.2,12.18,44.54,30.72,58.02,55.63,1.7,3.14,5.64,4.3,8.81,2.58,.28-.15,.54-.32,.79-.51l16.89-12.62c1.97-1.47,1.99-2.97,.06-4.52-18.08-13.94-34.85-26.37-30.77-48.16,.25-1.47,1.11-2.03,2.57-1.7,38.55,9.48,46.21,56.64,52.62,89.85,.42,2.18,1.47,4,3.14,5.46,14.69,12.98,19.93,29.49,15.7,49.54-.5,2.26,.1,4.17,1.82,5.71,4.56,4.1,10.09,6.11,16.58,6.03,2.39-.04,4.21,.96,5.46,3.01,5.86,9.88,5.42,19.88-1.32,30.01-1.05,1.59-1.17,3.24-.38,4.96l11.55,25.99c1.35,3.01,.21,6.55-2.64,8.16l-96,55.19c-1.97,1.13-4.06,1.44-6.28,.94-15.82-3.39-29.13,9.1-42.45-4.65-1.59-1.63-3.52-2.47-5.78-2.51-14.19-.46-27.46-4.17-39.81-11.11-2.18-1.21-4.44-1.42-6.78-.63-14.82,5.02-30.22,6.99-46.21,5.9-2.05-.13-3.83,.52-5.34,1.95l-8.66,8.35c-1.51,1.42-2.16,3.18-1.95,5.27,1.05,10.84-3.18,19.03-12.68,24.55-2.69,1.58-3.59,5.05-2.01,7.74,.3,.51,.68,.97,1.13,1.37l14.88,13.31c1.63,1.47,1.65,2.93,.06,4.4-11.36,10.3-67.94,49.04-65.36,18.77,.13-1.84,.75-3.52,1.88-5.02,11.8-16.01-11.8-41.19-25.43-46.53-2.05-.8-3.39-2.22-4.02-4.27l-9.1-28.51c-.75-2.26-2.13-4.02-4.14-5.27l-7.16-4.46c-1.84-1.13-2.76-2.78-2.76-4.96v-36.23c.01-1.7,1.4-3.07,3.09-3.06,.82,0,1.61,.34,2.18,.92,25.12,25.62,57.33,22.73,77.8,51.24,3.68,5.15,7.37,8.37,11.05,9.67,4.81,1.72,10.15,2.47,16.01,2.26,2.93-.13,3.01-.67,.25-1.63Zm54.25-245.25l31.08,27.44c1.76,1.59,2.89,3.54,3.39,5.84,2.93,13.39,10.76,22.73,23.48,28,2.99,1.2,6.39-.23,7.6-3.19,.49-1.2,.56-2.53,.19-3.78-4.4-15.24-3.91-30.29,1.44-45.15,.84-2.26,.33-4.19-1.51-5.78-12.73-10.84-27.33-18.48-43.83-22.92-2.09-.59-4.08-.33-5.97,.75-8,4.56-16.72,6.43-26.18,5.59-3.34-.27-6.42,1.82-7.41,5.02-2.93,9.33-.61,15.61,6.97,18.84,4.65,1.93,6.28,.48,4.9-4.33-.63-2.18-.42-4.06,.63-5.65,1.46-2.22,3.2-2.45,5.21-.69Zm150.76,58.46c-13.44-12.5-24.68,5.21-15.89,17.64,1.76,2.51,3.64,2.6,5.65,.25l10.55-12.18c1.76-2.01,1.65-3.91-.31-5.71Zm-160.55,145.36c.38-1.76-10.02-5.53-23.23-8.41,0,0,0,0,0,0-13.21-2.88-24.24-3.79-24.62-2.03,0,0,0,0,0,0-.38,1.76,10.02,5.53,23.23,8.41,0,0,0,0,0,0,13.21,2.88,24.24,3.79,24.62,2.03h0Z"/>
    <path class="cls-1" d="M278.2,287.39c-3.2-17.77,21.03-29.7,31.96-42.26,1.38-1.59,3.06-2.01,5.02-1.26,14,5.46,10.61,22.23,0,29.89-1.97,1.38-2.62,3.22-1.95,5.53,3.06,11.01,2.49,21.87-1.7,32.59-.8,1.92-3,2.83-4.92,2.04-.83-.35-1.51-.98-1.92-1.78-4.73-9.54-12.2-16.16-22.42-19.84-2.3-.84-3.66-2.47-4.08-4.9Z"/>
    <path class="cls-1" d="M606.65,305.72c1.81-.78,2.65-2.89,1.86-4.71-.22-.51-.56-.96-.99-1.32-7.87-6.74-13.19-15.09-15.95-25.05-.75-2.72,.23-3.66,2.95-2.83,15.32,4.6,24.82,14.61,28.51,30.01,.5,2.18,.02,4.1-1.44,5.78-17.14,19.15,11.55,28.51,6.34,49.92-.46,1.8-1.59,2.87-3.39,3.2l-10.67,2.01c-2.34,.46-3.54,1.88-3.58,4.27l-.06,40.88c0,1.46-1.18,2.64-2.64,2.64-.81,0-1.57-.37-2.07-1.01-12.56-16.41-18.92-34.85-19.09-55.32,0-2.22-.5-4.31-1.51-6.28l-4.4-9.1c-1.12-2.27-.18-5.02,2.09-6.14,.37-.18,.77-.32,1.18-.39l11.55-2.07c2.85-.5,3.85-2.16,3.01-4.96-2.68-9.33,.08-15.84,8.29-19.53Z"/>
    <path class="cls-1" d="M146.34,679.38c25.74,11.8,46.84,21.16,75.28,7.35,193.58-93.49,390.61-179.89,584.75-272.44,4.36-2.06,9.56-.2,11.62,4.16,.24,.5,.42,1.02,.56,1.55,14.13,55-25.81,67-65.17,85.58-67.81,32.11-235.98,112.54-504.51,241.3-39.31,18.84-74.09,31.21-108.44-4.58-1.38-1.47-2.07-3.18-2.07-5.15l.69-53.12c.02-2.84,2.34-5.13,5.19-5.11,.72,0,1.44,.16,2.1,.46Z"/>
    <path class="cls-1" d="M148.98,805.27c23.17,11.74,46.02,20.59,74.03,7.28,193.64-91.76,388.18-184.96,583.62-279.6,4.25-2.05,9.36-.25,11.42,4.03,.24,.5,.43,1.02,.57,1.55,15.7,60.34-21.03,70.2-71.39,94.37-162.2,77.9-324.51,155.51-486.93,232.82-47.15,22.42-77.29,40-117.42,4.46-1.59-1.42-2.55-3.18-2.89-5.27-3.06-18.25-3.18-36.54-.38-54.88,.92-5.86,4.04-7.45,9.36-4.77Z"/>
    <path class="cls-2" d="M363.15,255.87c-1.05,1.59-1.26,3.47-.63,5.65,1.38,4.81-.25,6.26-4.9,4.33-7.58-3.22-9.9-9.5-6.97-18.84,.99-3.2,4.07-5.29,7.41-5.02,9.46,.84,18.19-1.03,26.18-5.59,1.88-1.09,3.87-1.34,5.97-.75,16.49,4.44,31.1,12.08,43.83,22.92,1.84,1.59,2.34,3.52,1.51,5.78-5.36,14.86-5.84,29.91-1.44,45.15,.9,3.06-.87,6.27-3.97,7.16-1.26,.36-2.6,.29-3.82-.19-12.73-5.27-20.55-14.61-23.48-28-.5-2.3-1.63-4.25-3.39-5.84l-31.08-27.44c-2.01-1.76-3.75-1.53-5.21,.69Z"/>
    <path class="cls-2" d="M503.24,331.28c-8.79-12.43,2.45-30.14,15.89-17.64,1.97,1.8,2.07,3.7,.31,5.71l-10.55,12.18c-2.01,2.34-3.89,2.26-5.65-.25Z"/>
    <ellipse class="cls-2" cx="334.65" cy="453.78" rx="3.27" ry="24.49" transform="translate(-180.01 684.08) rotate(-77.7)"/>
</svg>
