<svg viewBox="240 0 4273 1200" fill="none" xmlns="http://www.w3.org/2000/svg">
    <path d="M351.55 149.95C536.65 232.89 720.87 318.66 905.22 403.62C943.4 421.2 963.05 436.65 963.61 479.22C964.11 520.58 964.11 596.03 963.61 705.57C963.36 754.73 941.38 771.88 897.43 792.91C715.13 880.14 532.77 967.15 350.35 1053.92C305.14 1075.39 256.92 1059.19 240.78 1010.66C237.47 1000.66 235.88 983.35 236.01 958.73C238.02 625.49 238.44 396.16 237.27 270.75C236.83 221.77 229.99 137.7 303.89 136.76C315.65 136.59 331.54 140.99 351.55 149.95ZM433.87 622.06C428.01 622.27 422.67 621.52 417.86 619.8C414.18 618.5 410.49 615.28 406.81 610.13C386.34 581.62 354.13 584.51 329.01 558.89C327.82 557.68 325.87 557.66 324.66 558.85C324.07 559.42 323.74 560.21 323.74 561.03V597.26C323.74 599.44 324.66 601.09 326.5 602.22L333.66 606.68C335.67 607.94 337.05 609.69 337.8 611.95L346.9 640.46C347.53 642.51 348.87 643.93 350.92 644.73C364.55 650.07 388.15 675.25 376.35 691.26C375.22 692.77 374.59 694.44 374.47 696.28C371.9 726.54 428.47 687.8 439.83 677.51C441.42 676.04 441.4 674.58 439.77 673.11L424.89 659.8C422.55 657.73 422.33 654.16 424.4 651.82C424.79 651.37 425.26 650.99 425.77 650.69C435.27 645.16 439.5 636.98 438.45 626.14C438.24 624.05 438.89 622.29 440.4 620.87L449.06 612.52C450.57 611.1 452.35 610.45 454.4 610.57C470.39 611.66 485.79 609.69 500.61 604.67C502.95 603.87 505.21 604.08 507.39 605.3C519.74 612.25 533.01 615.95 547.2 616.41C549.46 616.45 551.39 617.29 552.98 618.92C566.29 632.67 579.6 620.18 595.43 623.57C597.65 624.07 599.74 623.76 601.71 622.63L697.71 567.44C700.56 565.83 701.7 562.29 700.35 559.28L688.8 533.29C688 531.57 688.13 529.92 689.18 528.33C695.92 518.2 696.36 508.2 690.5 498.32C689.24 496.27 687.42 495.26 685.04 495.31C678.55 495.39 673.03 493.38 668.46 489.28C666.74 487.73 666.14 485.83 666.64 483.57C670.87 463.52 665.64 447.01 650.94 434.03C649.27 432.56 648.22 430.74 647.8 428.57C641.4 395.35 633.74 348.2 595.18 338.72C593.71 338.39 592.86 338.95 592.61 340.42C588.53 362.21 605.29 374.64 623.38 388.58C625.31 390.13 625.28 391.64 623.32 393.1L606.43 405.72C603.54 407.87 599.46 407.3 597.32 404.43C597.13 404.18 596.97 403.92 596.82 403.65C583.34 378.74 564 360.2 538.8 348.02C536.78 347.07 534.99 345.67 533.59 343.94C517.14 323.97 542.76 324.22 552.87 321.59C554.75 321.13 555.91 319.96 556.32 318.07C557.07 314.62 553.24 312.98 550.1 312.36C538.21 310.14 529.34 303.9 523.48 293.65C522.35 291.68 520.82 290.07 518.9 288.82L474.45 259.87C472.44 258.57 470.43 258.57 468.42 259.87L458.31 266.34C456.68 267.39 455.07 267.39 453.48 266.34C434.77 254.41 417.56 263.2 399.54 271.36C397.41 272.32 395.29 272.3 393.2 271.3L361.81 256.17C360.09 255.33 358.31 255.17 356.47 255.67C346.97 258.18 337.34 260.11 327.59 261.45C325.04 261.83 323.76 263.31 323.76 265.91V307.29C323.76 309.68 324.91 310.56 327.21 309.93L340.9 306.29C344.12 305.45 345.73 306.71 345.73 310.06V321.36C345.73 323.54 346.48 325.42 347.99 327.01L376.18 356.65C377.44 357.95 378.69 357.97 379.95 356.71L381.33 355.33C382.84 353.82 383.32 352.02 382.77 349.93L379.38 336.93C378.79 334.59 379.69 333.25 382.08 332.91L383.9 332.66C386.83 332.28 388.67 333.54 389.43 336.43C393.16 350.54 402.43 358.8 417.25 361.23C419.59 361.61 421.12 360.66 421.83 358.4L423.84 351.81C424.72 348.96 427.75 347.37 430.6 348.26C431.33 348.49 432 348.86 432.57 349.37L461.08 374.42C463.47 376.51 463.47 378.61 461.08 380.7L447.52 392.5C445.99 393.86 445.86 396.2 447.22 397.73C447.7 398.27 448.33 398.65 449.02 398.84C462.21 402.23 490.96 412.72 488.39 429.98C488.06 432.37 486.78 434.02 484.56 434.94L461.52 444.36C460.21 444.91 459.59 446.42 460.14 447.73C460.41 448.37 460.93 448.88 461.58 449.13C464.93 450.47 467.57 450.01 469.49 447.75C471.21 445.74 473.24 445.32 475.58 446.49C479.6 448.5 514.07 469.35 508.29 474.68C506.95 475.94 505.72 475.85 504.59 474.43C479.66 442.47 448.39 476.44 446.07 503.69C445.9 505.45 445.15 506.89 443.81 508.02L424.72 524.03C422.5 525.83 422.1 527.99 423.53 530.5C426.17 535.27 428.07 540.27 429.24 545.51C431.17 554.51 429.85 555.03 425.28 547.08L418.18 534.84C417.09 532.91 415.46 531.89 413.28 531.76C399.97 530.88 373.41 527.74 363.11 537.6C344.46 555.62 364.87 581.49 387.6 568.74C389.73 567.53 391.85 567.55 393.94 568.8L396.07 570.12C397.95 571.29 398.25 572.76 396.95 574.52L392.3 580.74C390.29 583.42 390.9 585.22 394.12 586.14L409.69 590.72C411.82 591.31 413.06 592.71 413.39 594.93L415.52 610.5C415.81 612.8 417.05 614.35 419.22 615.15L434.1 620.49C436.86 621.45 436.78 622 433.85 622.12L433.87 622.06ZM402.29 412.28C412.5 415.96 419.98 422.58 424.71 432.12C425.65 433.98 427.91 434.73 429.77 433.79C430.58 433.38 431.21 432.7 431.55 431.87C435.74 421.15 436.3 410.29 433.25 399.28C432.58 396.98 433.23 395.14 435.2 393.75C445.81 386.09 449.2 369.33 435.2 363.86C433.23 363.11 431.56 363.53 430.18 365.12C419.25 377.68 395.02 389.61 398.22 407.38C398.64 409.81 400 411.44 402.3 412.28H402.29ZM726.66 425.72C718.46 429.4 715.69 435.91 718.37 445.25C719.21 448.05 718.2 449.71 715.36 450.21L703.81 452.28C701.32 452.75 699.68 455.14 700.15 457.63C700.23 458.04 700.36 458.44 700.54 458.81L704.94 467.91C705.94 469.88 706.45 471.97 706.45 474.19C706.62 494.66 712.98 513.1 725.54 529.51C726.44 530.65 728.1 530.85 729.24 529.95C729.88 529.45 730.25 528.69 730.25 527.88L730.31 487C730.35 484.61 731.54 483.19 733.89 482.73L744.56 480.72C746.36 480.39 747.49 479.32 747.95 477.52C753.16 456.11 724.47 446.75 741.61 427.6C743.08 425.93 743.56 424 743.05 421.82C739.37 406.42 729.86 396.41 714.54 391.81C711.82 390.97 710.84 391.91 711.59 394.64C714.35 404.6 719.67 412.95 727.54 419.69C729.05 420.96 729.25 423.22 727.98 424.73C727.62 425.16 727.17 425.49 726.66 425.72ZM341.63 806.73C313.19 820.54 292.09 811.19 266.35 799.38C263.76 798.2 260.71 799.34 259.53 801.93C259.23 802.59 259.07 803.3 259.07 804.03L258.38 857.15C258.38 859.12 259.07 860.83 260.45 862.3C294.8 898.09 329.58 885.72 368.89 866.88C637.42 738.12 805.59 657.69 873.4 625.58C912.77 606.99 952.7 595 938.57 540C937.37 535.33 932.61 532.52 927.94 533.73C927.41 533.87 926.89 534.06 926.39 534.29C732.25 626.84 535.21 713.24 341.64 806.73H341.63ZM343.01 932.56C315.01 945.87 292.15 937.02 268.98 925.28C263.66 922.6 260.55 924.19 259.62 930.05C256.82 948.38 256.94 966.68 260 984.93C260.33 987.02 261.3 988.78 262.89 990.2C303.01 1025.74 333.15 1008.16 380.31 985.74C542.72 908.43 705.03 830.82 867.24 752.92C917.6 728.75 954.33 718.89 938.63 658.55C937.42 653.96 932.74 651.2 928.18 652.39C927.65 652.53 927.13 652.72 926.64 652.96C731.2 747.6 536.66 840.8 343.02 932.56H343.01Z"
          fill="#FF3E3C"/>
    <path d="M434.12 620.43L419.24 615.09C417.06 614.29 415.83 612.75 415.54 610.44L413.41 594.87C413.08 592.65 411.84 591.25 409.71 590.66L394.14 586.08C390.92 585.16 390.31 583.36 392.32 580.68L396.97 574.46C398.27 572.7 397.97 571.24 396.09 570.06L393.96 568.74C391.87 567.48 389.75 567.46 387.62 568.68C364.89 581.43 344.48 555.56 363.13 537.54C373.43 527.68 399.99 530.82 413.3 531.7C415.48 531.83 417.11 532.85 418.2 534.78L425.3 547.02C429.86 554.97 431.18 554.45 429.26 545.45C428.09 540.22 426.18 535.22 423.55 530.44C422.13 527.93 422.52 525.77 424.74 523.97L443.83 507.96C445.17 506.83 445.92 505.39 446.09 503.63C448.41 476.38 479.68 442.41 504.61 474.37C505.74 475.79 506.98 475.88 508.31 474.62C514.09 469.28 479.62 448.44 475.6 446.43C473.26 445.26 471.23 445.68 469.51 447.69C467.58 449.95 464.95 450.41 461.6 449.07C460.28 448.55 459.62 447.06 460.14 445.74C460.39 445.09 460.9 444.57 461.54 444.3L484.58 434.88C486.8 433.96 488.08 432.31 488.41 429.92C490.98 412.65 462.23 402.17 449.04 398.78C447.06 398.25 445.89 396.22 446.42 394.24C446.61 393.54 446.99 392.92 447.53 392.44L461.09 380.64C463.48 378.55 463.48 376.45 461.09 374.36L432.58 349.31C430.34 347.34 426.93 347.55 424.96 349.79C424.46 350.36 424.08 351.03 423.85 351.76L421.84 358.35C421.13 360.61 419.6 361.55 417.26 361.18C402.44 358.75 393.17 350.48 389.44 336.38C388.69 333.49 386.84 332.24 383.91 332.61L382.09 332.86C379.7 333.19 378.8 334.53 379.39 336.88L382.78 349.88C383.32 351.97 382.84 353.77 381.34 355.28L379.96 356.66C378.7 357.92 377.45 357.89 376.19 356.6L348 326.96C346.49 325.37 345.74 323.49 345.74 321.31V310.01C345.74 306.66 344.13 305.41 340.91 306.24L327.22 309.88C324.92 310.51 323.77 309.63 323.77 307.24V265.86C323.77 263.26 325.05 261.78 327.6 261.4C337.35 260.06 346.98 258.13 356.48 255.62C358.32 255.12 360.1 255.29 361.82 256.12L393.21 271.25C395.3 272.25 397.42 272.28 399.55 271.31C417.57 263.15 434.77 254.36 453.49 266.29C455.08 267.34 456.69 267.34 458.32 266.29L468.43 259.82C470.44 258.52 472.45 258.52 474.46 259.82L518.91 288.77C520.84 290.03 522.36 291.64 523.49 293.6C529.35 303.86 538.22 310.09 550.11 312.31C553.25 312.94 557.08 314.57 556.33 318.02C555.91 319.9 554.76 321.08 552.88 321.54C542.77 324.18 517.15 323.93 533.6 343.89C535 345.63 536.79 347.02 538.81 347.97C564.01 360.15 583.35 378.69 596.83 403.6C598.53 406.74 602.47 407.9 605.64 406.18C605.92 406.03 606.18 405.86 606.43 405.67L623.32 393.05C625.29 391.58 625.31 390.08 623.38 388.53C605.3 374.59 588.53 362.16 592.61 340.37C592.86 338.9 593.72 338.34 595.18 338.67C633.73 348.15 641.39 395.31 647.8 428.52C648.22 430.7 649.27 432.52 650.94 433.98C665.63 446.96 670.87 463.47 666.64 483.52C666.14 485.78 666.74 487.69 668.46 489.23C673.02 493.33 678.55 495.34 685.04 495.26C687.43 495.22 689.25 496.22 690.5 498.27C696.36 508.15 695.92 518.15 689.18 528.28C688.13 529.87 688.01 531.52 688.8 533.24L700.35 559.23C701.7 562.24 700.56 565.78 697.71 567.39L601.71 622.58C599.74 623.71 597.65 624.02 595.43 623.52C579.61 620.13 566.3 632.62 552.98 618.87C551.39 617.24 549.46 616.4 547.2 616.36C533.01 615.9 519.74 612.19 507.39 605.25C505.21 604.04 502.95 603.83 500.61 604.62C485.79 609.64 470.39 611.61 454.4 610.52C452.35 610.39 450.57 611.04 449.06 612.47L440.4 620.82C438.89 622.24 438.24 624 438.45 626.09C439.5 636.93 435.27 645.12 425.77 650.64C423.08 652.22 422.18 655.69 423.76 658.38C424.06 658.89 424.44 659.35 424.89 659.75L439.77 673.06C441.4 674.53 441.42 675.99 439.83 677.46C428.47 687.76 371.89 726.5 374.47 696.23C374.6 694.39 375.22 692.71 376.35 691.21C388.15 675.2 364.55 650.02 350.92 644.68C348.87 643.88 347.53 642.46 346.9 640.41L337.8 611.9C337.05 609.64 335.67 607.88 333.66 606.63L326.5 602.17C324.66 601.04 323.74 599.39 323.74 597.21V560.98C323.75 559.28 325.14 557.91 326.83 557.92C327.65 557.92 328.44 558.26 329.01 558.84C354.13 584.46 386.34 581.57 406.81 610.08C410.49 615.23 414.18 618.45 417.86 619.75C422.67 621.47 428.01 622.22 433.87 622.01C436.8 621.88 436.88 621.34 434.12 620.38V620.43ZM488.37 375.18L519.45 402.62C521.21 404.21 522.34 406.16 522.84 408.46C525.77 421.85 533.6 431.19 546.32 436.46C549.31 437.66 552.71 436.23 553.92 433.27C554.41 432.07 554.48 430.74 554.11 429.49C549.71 414.25 550.2 399.2 555.55 384.34C556.39 382.08 555.88 380.15 554.04 378.56C541.31 367.72 526.71 360.08 510.21 355.64C508.12 355.05 506.13 355.31 504.24 356.39C496.24 360.95 487.52 362.82 478.06 361.98C474.72 361.71 471.64 363.8 470.65 367C467.72 376.33 470.04 382.61 477.62 385.84C482.27 387.77 483.9 386.32 482.52 381.51C481.89 379.33 482.1 377.45 483.15 375.86C484.61 373.64 486.35 373.41 488.36 375.17L488.37 375.18ZM639.13 433.64C625.69 421.14 614.45 438.85 623.24 451.28C625 453.79 626.88 453.88 628.89 451.53L639.44 439.35C641.2 437.34 641.09 435.44 639.13 433.64ZM478.58 579C478.96 577.24 468.56 573.47 455.35 570.59C442.14 567.71 431.11 566.8 430.73 568.56C430.35 570.32 440.75 574.09 453.96 576.97C467.17 579.85 478.2 580.76 478.58 579Z"
          fill="white"/>
    <path d="M398.2 407.39C395 389.62 419.23 377.69 430.16 365.13C431.54 363.54 433.22 363.12 435.18 363.87C449.18 369.33 445.79 386.1 435.18 393.76C433.21 395.14 432.56 396.98 433.23 399.29C436.29 410.3 435.72 421.16 431.53 431.88C430.73 433.8 428.53 434.71 426.61 433.92C425.78 433.57 425.1 432.94 424.69 432.14C419.96 422.6 412.49 415.98 402.27 412.3C399.97 411.46 398.61 409.83 398.19 407.4L398.2 407.39Z"
          fill="white"/>
    <path d="M726.65 425.72C728.46 424.94 729.3 422.83 728.51 421.01C728.29 420.5 727.95 420.05 727.52 419.69C719.65 412.95 714.33 404.6 711.57 394.64C710.82 391.92 711.8 390.98 714.52 391.81C729.84 396.41 739.34 406.42 743.03 421.82C743.53 424 743.05 425.92 741.59 427.6C724.45 446.75 753.14 456.11 747.93 477.52C747.47 479.32 746.34 480.39 744.54 480.72L733.87 482.73C731.53 483.19 730.33 484.61 730.29 487L730.23 527.88C730.23 529.34 729.05 530.52 727.59 530.52C726.78 530.52 726.02 530.15 725.52 529.51C712.96 513.1 706.6 494.66 706.43 474.19C706.43 471.97 705.93 469.88 704.92 467.91L700.52 458.81C699.4 456.54 700.34 453.79 702.61 452.67C702.98 452.49 703.38 452.35 703.79 452.28L715.34 450.21C718.19 449.71 719.19 448.05 718.35 445.25C715.67 435.92 718.43 429.41 726.64 425.72H726.65Z"
          fill="white"/>
    <path d="M266.34 799.38C292.08 811.18 313.18 820.54 341.62 806.73C535.2 713.24 732.23 626.84 926.37 534.29C930.73 532.23 935.93 534.09 937.99 538.45C938.23 538.95 938.41 539.47 938.55 540C952.68 595 912.74 607 873.38 625.58C805.57 657.69 637.4 738.12 368.87 866.88C329.56 885.72 294.78 898.09 260.43 862.3C259.05 860.83 258.36 859.12 258.36 857.15L259.05 804.03C259.07 801.19 261.39 798.9 264.24 798.92C264.96 798.92 265.68 799.08 266.34 799.38Z"
          fill="white"/>
    <path d="M268.98 925.27C292.15 937.01 315 945.86 343.01 932.55C536.65 840.79 731.19 747.59 926.63 652.95C930.88 650.9 935.99 652.7 938.05 656.98C938.29 657.48 938.48 658 938.62 658.53C954.32 718.87 917.59 728.73 867.23 752.9C705.03 830.8 542.72 908.41 380.3 985.72C333.15 1008.14 303.01 1025.72 262.88 990.18C261.29 988.76 260.33 987 259.99 984.91C256.93 966.66 256.81 948.37 259.61 930.03C260.53 924.17 263.65 922.58 268.97 925.26L268.98 925.27Z"
          fill="white"/>
    <path d="M483.15 375.87C482.1 377.46 481.89 379.34 482.52 381.52C483.9 386.33 482.27 387.78 477.62 385.85C470.04 382.63 467.72 376.35 470.65 367.01C471.64 363.81 474.72 361.72 478.06 361.99C487.52 362.83 496.25 360.96 504.24 356.4C506.12 355.31 508.11 355.06 510.21 355.65C526.7 360.09 541.31 367.73 554.04 378.57C555.88 380.16 556.38 382.09 555.55 384.35C550.19 399.21 549.71 414.26 554.11 429.5C555.01 432.56 553.24 435.77 550.14 436.66C548.88 437.02 547.54 436.95 546.32 436.47C533.59 431.2 525.77 421.86 522.84 408.47C522.34 406.17 521.21 404.22 519.45 402.63L488.37 375.19C486.36 373.43 484.62 373.66 483.16 375.88L483.15 375.87Z"
          fill="#FF3E3C"/>
    <path d="M623.24 451.28C614.45 438.85 625.69 421.14 639.13 433.64C641.1 435.44 641.2 437.34 639.44 439.35L628.89 451.53C626.88 453.87 625 453.79 623.24 451.28Z"
          fill="#FF3E3C"/>
    <path d="M478.572 578.998C478.957 577.233 468.556 573.467 455.341 570.586C442.126 567.704 431.101 566.799 430.717 568.563C430.332 570.328 440.733 574.094 453.948 576.975C467.163 579.857 478.187 580.762 478.572 578.998Z"
          fill="#FF3E3C"/>
    <path d="M1248.36 715.744C1241.27 715.744 1235.79 713.8 1231.9 709.913C1228.24 705.797 1226.41 700.195 1226.41 693.106V491.079C1226.41 483.762 1228.24 478.159 1231.9 474.272C1235.79 470.385 1241.27 468.441 1248.36 468.441C1255.45 468.441 1260.83 470.385 1264.48 474.272C1268.37 478.159 1270.32 483.762 1270.32 491.079V572.027H1394.82V491.079C1394.82 483.762 1396.65 478.159 1400.31 474.272C1404.2 470.385 1409.69 468.441 1416.78 468.441C1423.86 468.441 1429.24 470.385 1432.9 474.272C1436.78 478.159 1438.73 483.762 1438.73 491.079V693.106C1438.73 700.195 1436.78 705.797 1432.9 709.913C1429.24 713.8 1423.86 715.744 1416.78 715.744C1409.69 715.744 1404.2 713.8 1400.31 709.913C1396.65 705.797 1394.82 700.195 1394.82 693.106V608.728H1270.32V693.106C1270.32 700.195 1268.49 705.797 1264.83 709.913C1261.17 713.8 1255.68 715.744 1248.36 715.744ZM1564.07 716.43C1546.69 716.43 1531.6 712.886 1518.8 705.797C1505.99 698.708 1496.04 688.647 1488.96 675.613C1481.87 662.35 1478.32 646.801 1478.32 628.965C1478.32 615.474 1480.27 603.469 1484.15 592.95C1488.27 582.203 1494.1 573.056 1501.65 565.51C1509.19 557.735 1518.23 551.904 1528.74 548.017C1539.26 543.901 1551.04 541.843 1564.07 541.843C1581.45 541.843 1596.54 545.387 1609.35 552.476C1622.15 559.565 1632.1 569.626 1639.19 582.66C1646.28 595.694 1649.82 611.129 1649.82 628.965C1649.82 642.456 1647.77 654.576 1643.65 665.323C1639.76 676.07 1634.05 685.331 1626.5 693.106C1618.95 700.652 1609.92 706.483 1599.4 710.599C1588.88 714.486 1577.11 716.43 1564.07 716.43ZM1564.07 683.845C1572.53 683.845 1579.97 681.787 1586.37 677.671C1592.77 673.555 1597.69 667.495 1601.12 659.492C1604.78 651.26 1606.61 641.084 1606.61 628.965C1606.61 610.672 1602.72 597.066 1594.94 588.148C1587.17 579.001 1576.88 574.428 1564.07 574.428C1555.61 574.428 1548.18 576.486 1541.78 580.602C1535.38 584.489 1530.34 590.549 1526.69 598.781C1523.26 606.784 1521.54 616.846 1521.54 628.965C1521.54 647.03 1525.43 660.75 1533.2 670.125C1540.98 679.272 1551.27 683.845 1564.07 683.845ZM1742.49 716.43C1723.51 716.43 1709.22 711.056 1699.62 700.309C1690.01 689.333 1685.21 673.326 1685.21 652.289V490.05C1685.21 482.961 1687.04 477.588 1690.7 473.929C1694.36 470.27 1699.62 468.441 1706.48 468.441C1713.34 468.441 1718.6 470.27 1722.26 473.929C1726.14 477.588 1728.09 482.961 1728.09 490.05V650.231C1728.09 660.75 1730.26 668.524 1734.6 673.555C1739.18 678.586 1745.58 681.101 1753.81 681.101C1755.64 681.101 1757.36 681.101 1758.96 681.101C1760.56 680.872 1762.16 680.644 1763.76 680.415C1766.96 679.958 1769.13 680.872 1770.28 683.159C1771.42 685.217 1771.99 689.562 1771.99 696.193C1771.99 701.91 1770.85 706.369 1768.56 709.57C1766.27 712.771 1762.5 714.715 1757.24 715.401C1754.95 715.63 1752.55 715.858 1750.04 716.087C1747.52 716.316 1745.01 716.43 1742.49 716.43ZM1869.56 716.43C1852.18 716.43 1837.09 712.886 1824.28 705.797C1811.48 698.708 1801.53 688.647 1794.44 675.613C1787.35 662.35 1783.81 646.801 1783.81 628.965C1783.81 615.474 1785.75 603.469 1789.64 592.95C1793.75 582.203 1799.59 573.056 1807.13 565.51C1814.68 557.735 1823.71 551.904 1834.23 548.017C1844.75 543.901 1856.52 541.843 1869.56 541.843C1886.94 541.843 1902.03 545.387 1914.83 552.476C1927.64 559.565 1937.59 569.626 1944.67 582.66C1951.76 595.694 1955.31 611.129 1955.31 628.965C1955.31 642.456 1953.25 654.576 1949.13 665.323C1945.25 676.07 1939.53 685.331 1931.98 693.106C1924.44 700.652 1915.41 706.483 1904.89 710.599C1894.37 714.486 1882.59 716.43 1869.56 716.43ZM1869.56 683.845C1878.02 683.845 1885.45 681.787 1891.85 677.671C1898.26 673.555 1903.17 667.495 1906.6 659.492C1910.26 651.26 1912.09 641.084 1912.09 628.965C1912.09 610.672 1908.2 597.066 1900.43 588.148C1892.65 579.001 1882.36 574.428 1869.56 574.428C1861.1 574.428 1853.67 576.486 1847.26 580.602C1840.86 584.489 1835.83 590.549 1832.17 598.781C1828.74 606.784 1827.03 616.846 1827.03 628.965C1827.03 647.03 1830.91 660.75 1838.69 670.125C1846.46 679.272 1856.75 683.845 1869.56 683.845ZM2018.14 713C2010.59 713 2004.76 711.056 2000.64 707.169C1996.76 703.053 1994.81 697.222 1994.81 689.676V494.509C1994.81 486.963 1996.76 481.246 2000.64 477.359C2004.76 473.243 2010.59 471.185 2018.14 471.185H2140.59C2146.3 471.185 2150.65 472.671 2153.62 475.644C2156.82 478.617 2158.42 482.847 2158.42 488.335C2158.42 494.052 2156.82 498.511 2153.62 501.712C2150.65 504.685 2146.3 506.171 2140.59 506.171H2037V572.713H2133.04C2138.99 572.713 2143.44 574.199 2146.42 577.172C2149.39 580.145 2150.88 584.489 2150.88 590.206C2150.88 595.923 2149.39 600.267 2146.42 603.24C2143.44 606.213 2138.99 607.699 2133.04 607.699H2037V678.014H2140.59C2146.3 678.014 2150.65 679.5 2153.62 682.473C2156.82 685.446 2158.42 689.79 2158.42 695.507C2158.42 701.224 2156.82 705.568 2153.62 708.541C2150.65 711.514 2146.3 713 2140.59 713H2018.14ZM2220.05 715.744C2213.42 715.744 2208.28 713.915 2204.62 710.256C2201.19 706.597 2199.47 701.338 2199.47 694.478V490.393C2199.47 483.304 2201.19 477.931 2204.62 474.272C2208.28 470.385 2212.96 468.441 2218.68 468.441C2223.94 468.441 2227.83 469.47 2230.34 471.528C2233.09 473.357 2236.29 476.559 2239.95 481.132L2371.32 651.603H2362.4V489.364C2362.4 482.733 2364.11 477.588 2367.54 473.929C2371.2 470.27 2376.35 468.441 2382.98 468.441C2389.61 468.441 2394.64 470.27 2398.07 473.929C2401.5 477.588 2403.21 482.733 2403.21 489.364V695.164C2403.21 701.567 2401.61 706.597 2398.41 710.256C2395.21 713.915 2390.87 715.744 2385.38 715.744C2380.12 715.744 2375.89 714.715 2372.69 712.657C2369.71 710.599 2366.4 707.283 2362.74 702.71L2231.71 532.239H2240.29V694.478C2240.29 701.338 2238.57 706.597 2235.14 710.256C2231.71 713.915 2226.68 715.744 2220.05 715.744ZM2571.81 715.744C2564.72 715.744 2559.12 713.8 2555 709.913C2551.12 705.797 2549.17 699.966 2549.17 692.42V494.509C2549.17 486.963 2551.12 481.246 2555 477.359C2559.12 473.243 2564.95 471.185 2572.5 471.185H2692.2C2698.15 471.185 2702.61 472.671 2705.58 475.644C2708.55 478.617 2710.04 482.847 2710.04 488.335C2710.04 494.052 2708.55 498.511 2705.58 501.712C2702.61 504.685 2698.15 506.171 2692.2 506.171H2593.08V574.428H2685C2690.72 574.428 2695.06 575.914 2698.03 578.887C2701.24 581.86 2702.84 586.09 2702.84 591.578C2702.84 597.295 2701.24 601.754 2698.03 604.955C2695.06 607.928 2690.72 609.414 2685 609.414H2593.08V692.42C2593.08 707.969 2585.99 715.744 2571.81 715.744ZM2786.18 716.43C2774.06 716.43 2763.2 714.143 2753.6 709.57C2744.22 704.768 2736.79 698.365 2731.3 690.362C2726.04 682.359 2723.41 673.326 2723.41 663.265C2723.41 650.917 2726.61 641.199 2733.02 634.11C2739.42 626.793 2749.82 621.533 2764.23 618.332C2778.64 615.131 2797.96 613.53 2822.2 613.53H2839.35V638.226H2822.54C2808.36 638.226 2797.04 638.912 2788.58 640.284C2780.12 641.656 2774.06 644.057 2770.4 647.487C2766.97 650.688 2765.26 655.262 2765.26 661.207C2765.26 668.753 2767.89 674.927 2773.15 679.729C2778.41 684.531 2785.72 686.932 2795.1 686.932C2802.65 686.932 2809.28 685.217 2814.99 681.787C2820.94 678.128 2825.63 673.212 2829.06 667.038C2832.49 660.864 2834.2 653.775 2834.2 645.772V606.327C2834.2 594.894 2831.69 586.662 2826.66 581.631C2821.63 576.6 2813.16 574.085 2801.27 574.085C2794.64 574.085 2787.44 574.885 2779.67 576.486C2772.12 578.087 2764.12 580.831 2755.66 584.718C2751.31 586.776 2747.42 587.348 2743.99 586.433C2740.79 585.518 2738.28 583.689 2736.45 580.945C2734.62 577.972 2733.7 574.771 2733.7 571.341C2733.7 567.911 2734.62 564.595 2736.45 561.394C2738.28 557.964 2741.36 555.449 2745.71 553.848C2756.23 549.503 2766.29 546.416 2775.89 544.587C2785.72 542.758 2794.64 541.843 2802.65 541.843C2819.11 541.843 2832.6 544.358 2843.12 549.389C2853.87 554.42 2861.87 562.08 2867.13 572.37C2872.39 582.431 2875.02 595.465 2875.02 611.472V693.792C2875.02 700.881 2873.3 706.369 2869.87 710.256C2866.44 713.915 2861.53 715.744 2855.13 715.744C2848.72 715.744 2843.69 713.915 2840.03 710.256C2836.6 706.369 2834.89 700.881 2834.89 693.792V677.328H2837.63C2836.03 685.331 2832.83 692.306 2828.03 698.251C2823.45 703.968 2817.62 708.427 2810.54 711.628C2803.45 714.829 2795.33 716.43 2786.18 716.43ZM2939.8 715.744C2932.94 715.744 2927.68 713.915 2924.03 710.256C2920.37 706.369 2918.54 700.881 2918.54 693.792V564.138C2918.54 557.049 2920.37 551.676 2924.03 548.017C2927.68 544.358 2932.83 542.529 2939.46 542.529C2946.09 542.529 2951.24 544.358 2954.9 548.017C2958.55 551.676 2960.38 557.049 2960.38 564.138V587.462L2956.61 578.887C2961.64 566.768 2969.42 557.621 2979.93 551.447C2990.68 545.044 3002.8 541.843 3016.29 541.843C3029.78 541.843 3040.87 544.358 3049.56 549.389C3058.25 554.42 3064.77 562.08 3069.11 572.37C3073.46 582.431 3075.63 595.237 3075.63 610.786V693.792C3075.63 700.881 3073.8 706.369 3070.14 710.256C3066.48 713.915 3061.23 715.744 3054.37 715.744C3047.51 715.744 3042.13 713.915 3038.24 710.256C3034.59 706.369 3032.76 700.881 3032.76 693.792V612.844C3032.76 599.81 3030.24 590.32 3025.21 584.375C3020.41 578.43 3012.86 575.457 3002.57 575.457C2990 575.457 2979.93 579.459 2972.39 587.462C2965.07 595.237 2961.41 605.641 2961.41 618.675V693.792C2961.41 708.427 2954.21 715.744 2939.8 715.744ZM3301.48 715.744C3295.3 715.744 3290.27 714.258 3286.39 711.285C3282.73 708.312 3279.75 703.625 3277.47 697.222L3205.78 494.509C3203.27 487.192 3203.72 481.018 3207.15 475.987C3210.81 470.956 3216.87 468.441 3225.33 468.441C3231.51 468.441 3236.31 469.927 3239.74 472.9C3243.17 475.644 3245.91 480.103 3247.97 486.277L3309.71 669.439H3295.99L3360.47 486.62C3362.76 480.446 3365.62 475.873 3369.05 472.9C3372.48 469.927 3376.94 468.441 3382.43 468.441C3387.91 468.441 3392.26 469.927 3395.46 472.9C3398.66 475.873 3401.41 480.56 3403.69 486.963L3466.12 669.439H3454.11L3516.88 486.277C3518.94 480.332 3521.68 475.873 3525.11 472.9C3528.54 469.927 3533.23 468.441 3539.18 468.441C3546.49 468.441 3551.87 470.956 3555.3 475.987C3558.73 481.018 3559.19 487.192 3556.67 494.509L3484.3 697.565C3482.01 703.739 3479.04 708.312 3475.38 711.285C3471.72 714.258 3466.8 715.744 3460.63 715.744C3454.46 715.744 3449.54 714.258 3445.88 711.285C3442.22 708.312 3439.25 703.625 3436.96 697.222L3377.28 527.094H3385.17L3324.8 697.565C3322.52 703.739 3319.54 708.312 3315.88 711.285C3312.45 714.258 3307.65 715.744 3301.48 715.744ZM3655.38 716.43C3636.4 716.43 3620.05 712.886 3606.33 705.797C3592.61 698.708 3581.98 688.647 3574.43 675.613C3567.11 662.579 3563.45 647.144 3563.45 629.308C3563.45 611.929 3567 596.723 3574.09 583.689C3581.41 570.655 3591.35 560.479 3603.93 553.162C3616.73 545.616 3631.25 541.843 3647.49 541.843C3659.38 541.843 3670.01 543.787 3679.39 547.674C3688.99 551.561 3697.11 557.164 3703.74 564.481C3710.6 571.798 3715.75 580.716 3719.18 591.235C3722.84 601.525 3724.66 613.187 3724.66 626.221C3724.66 630.337 3723.18 633.538 3720.21 635.825C3717.46 637.883 3713.46 638.912 3708.2 638.912H3598.1V614.216H3694.48L3688.99 619.361C3688.99 608.842 3687.39 600.039 3684.19 592.95C3681.22 585.861 3676.76 580.488 3670.81 576.829C3665.1 572.942 3657.89 570.998 3649.2 570.998C3639.6 570.998 3631.37 573.285 3624.51 577.858C3617.88 582.203 3612.73 588.491 3609.07 596.723C3605.64 604.726 3603.93 614.33 3603.93 625.535V627.936C3603.93 646.687 3608.27 660.75 3616.96 670.125C3625.88 679.272 3638.91 683.845 3656.06 683.845C3662.01 683.845 3668.64 683.159 3675.96 681.787C3683.5 680.186 3690.59 677.557 3697.22 673.898C3702.03 671.154 3706.26 670.011 3709.92 670.468C3713.57 670.697 3716.43 671.954 3718.49 674.241C3720.78 676.528 3722.15 679.386 3722.61 682.816C3723.06 686.017 3722.38 689.333 3720.55 692.763C3718.95 696.193 3716.09 699.166 3711.97 701.681C3703.97 706.712 3694.71 710.485 3684.19 713C3673.9 715.287 3664.3 716.43 3655.38 716.43ZM3855.35 716.43C3841.17 716.43 3828.71 712.886 3817.96 705.797C3807.44 698.708 3800.47 689.219 3797.04 677.328L3800.81 668.753V693.792C3800.81 700.881 3798.98 706.369 3795.32 710.256C3791.66 713.915 3786.52 715.744 3779.89 715.744C3773.03 715.744 3767.77 713.915 3764.11 710.256C3760.45 706.369 3758.62 700.881 3758.62 693.792V490.05C3758.62 482.961 3760.45 477.588 3764.11 473.929C3767.77 470.27 3773.03 468.441 3779.89 468.441C3786.75 468.441 3792 470.27 3795.66 473.929C3799.55 477.588 3801.49 482.961 3801.49 490.05V579.23H3797.38C3801.04 568.025 3808.13 558.993 3818.64 552.133C3829.16 545.273 3841.4 541.843 3855.35 541.843C3870.21 541.843 3883.13 545.387 3894.1 552.476C3905.08 559.565 3913.66 569.626 3919.83 582.66C3926 595.465 3929.09 610.9 3929.09 628.965C3929.09 646.801 3926 662.35 3919.83 675.613C3913.66 688.647 3904.97 698.708 3893.76 705.797C3882.79 712.886 3869.98 716.43 3855.35 716.43ZM3843.34 683.845C3851.8 683.845 3859.23 681.787 3865.64 677.671C3872.04 673.555 3876.95 667.495 3880.38 659.492C3884.04 651.26 3885.87 641.084 3885.87 628.965C3885.87 610.672 3881.98 597.066 3874.21 588.148C3866.44 579.001 3856.15 574.428 3843.34 574.428C3834.88 574.428 3827.45 576.486 3821.05 580.602C3814.64 584.489 3809.61 590.549 3805.95 598.781C3802.52 606.784 3800.81 616.846 3800.81 628.965C3800.81 647.03 3804.7 660.75 3812.47 670.125C3820.24 679.272 3830.53 683.845 3843.34 683.845ZM4025.68 716.43C4015.85 716.43 4005.45 715.401 3994.47 713.343C3983.49 711.285 3973.66 707.741 3964.97 702.71C3961.31 700.423 3958.68 697.794 3957.08 694.821C3955.71 691.62 3955.14 688.533 3955.37 685.56C3955.82 682.359 3956.97 679.615 3958.8 677.328C3960.86 675.041 3963.37 673.555 3966.34 672.869C3969.54 672.183 3972.97 672.755 3976.63 674.584C3985.78 678.929 3994.35 682.016 4002.36 683.845C4010.36 685.446 4018.25 686.246 4026.03 686.246C4037 686.246 4045.12 684.417 4050.38 680.758C4055.87 676.871 4058.61 671.84 4058.61 665.666C4058.61 660.407 4056.78 656.405 4053.12 653.661C4049.69 650.688 4044.43 648.516 4037.34 647.144L4003.04 640.627C3988.87 637.883 3978.01 632.738 3970.46 625.192C3963.14 617.417 3959.48 607.47 3959.48 595.351C3959.48 584.375 3962.46 574.885 3968.4 566.882C3974.58 558.879 3983.04 552.705 3993.78 548.36C4004.53 544.015 4016.88 541.843 4030.83 541.843C4040.89 541.843 4050.26 542.986 4058.95 545.273C4067.87 547.331 4076.45 550.647 4084.68 555.22C4088.11 557.049 4090.39 559.45 4091.54 562.423C4092.91 565.396 4093.25 568.483 4092.57 571.684C4091.88 574.657 4090.51 577.401 4088.45 579.916C4086.39 582.203 4083.76 583.689 4080.56 584.375C4077.59 584.832 4074.16 584.146 4070.27 582.317C4063.18 578.658 4056.32 576.029 4049.69 574.428C4043.29 572.827 4037.12 572.027 4031.17 572.027C4019.97 572.027 4011.62 573.971 4006.13 577.858C4000.87 581.745 3998.24 586.89 3998.24 593.293C3998.24 598.095 3999.84 602.097 4003.04 605.298C4006.25 608.499 4011.16 610.672 4017.79 611.815L4052.09 618.332C4066.96 621.076 4078.16 626.107 4085.71 633.424C4093.48 640.741 4097.37 650.574 4097.37 662.922C4097.37 679.615 4090.85 692.763 4077.82 702.367C4064.78 711.742 4047.41 716.43 4025.68 716.43ZM4153.03 715.401C4146.17 715.401 4140.91 713.343 4137.25 709.227C4133.6 705.111 4131.77 699.394 4131.77 692.077V566.196C4131.77 558.65 4133.6 552.933 4137.25 549.046C4140.91 544.93 4146.17 542.872 4153.03 542.872C4159.89 542.872 4165.15 544.93 4168.81 549.046C4172.7 552.933 4174.64 558.65 4174.64 566.196V692.077C4174.64 699.394 4172.81 705.111 4169.15 709.227C4165.49 713.343 4160.12 715.401 4153.03 715.401ZM4153.03 510.973C4145.03 510.973 4138.74 509.029 4134.17 505.142C4129.82 501.026 4127.65 495.424 4127.65 488.335C4127.65 481.018 4129.82 475.415 4134.17 471.528C4138.74 467.641 4145.03 465.697 4153.03 465.697C4161.26 465.697 4167.55 467.641 4171.9 471.528C4176.24 475.415 4178.41 481.018 4178.41 488.335C4178.41 495.424 4176.24 501.026 4171.9 505.142C4167.55 509.029 4161.26 510.973 4153.03 510.973ZM4296.02 716.43C4281.16 716.43 4268.7 713.915 4258.64 708.884C4248.8 703.853 4241.49 696.536 4236.68 686.932C4231.88 677.099 4229.48 664.98 4229.48 650.574V577.515H4211.64C4206.16 577.515 4201.93 576.143 4198.95 573.399C4195.98 570.426 4194.49 566.425 4194.49 561.394C4194.49 556.135 4195.98 552.133 4198.95 549.389C4201.93 546.645 4206.16 545.273 4211.64 545.273H4229.48V514.06C4229.48 506.971 4231.31 501.598 4234.97 497.939C4238.86 494.28 4244.23 492.451 4251.09 492.451C4257.95 492.451 4263.21 494.28 4266.87 497.939C4270.53 501.598 4272.36 506.971 4272.36 514.06V545.273H4308.71C4314.2 545.273 4318.43 546.645 4321.4 549.389C4324.38 552.133 4325.86 556.135 4325.86 561.394C4325.86 566.425 4324.38 570.426 4321.4 573.399C4318.43 576.143 4314.2 577.515 4308.71 577.515H4272.36V648.173C4272.36 659.149 4274.76 667.381 4279.56 672.869C4284.36 678.357 4292.14 681.101 4302.88 681.101C4306.77 681.101 4310.2 680.758 4313.17 680.072C4316.15 679.386 4318.77 678.929 4321.06 678.7C4323.81 678.471 4326.09 679.386 4327.92 681.444C4329.75 683.273 4330.67 687.161 4330.67 693.106C4330.67 697.679 4329.87 701.795 4328.26 705.454C4326.89 708.884 4324.26 711.285 4320.38 712.657C4317.4 713.572 4313.52 714.372 4308.71 715.058C4303.91 715.973 4299.68 716.43 4296.02 716.43ZM4431.82 716.43C4412.84 716.43 4396.49 712.886 4382.77 705.797C4369.05 698.708 4358.42 688.647 4350.87 675.613C4343.55 662.579 4339.89 647.144 4339.89 629.308C4339.89 611.929 4343.44 596.723 4350.53 583.689C4357.84 570.655 4367.79 560.479 4380.37 553.162C4393.17 545.616 4407.69 541.843 4423.93 541.843C4435.82 541.843 4446.45 543.787 4455.83 547.674C4465.43 551.561 4473.55 557.164 4480.18 564.481C4487.04 571.798 4492.19 580.716 4495.62 591.235C4499.28 601.525 4501.1 613.187 4501.1 626.221C4501.1 630.337 4499.62 633.538 4496.65 635.825C4493.9 637.883 4489.9 638.912 4484.64 638.912H4374.54V614.216H4470.92L4465.43 619.361C4465.43 608.842 4463.83 600.039 4460.63 592.95C4457.66 585.861 4453.2 580.488 4447.25 576.829C4441.54 572.942 4434.33 570.998 4425.64 570.998C4416.04 570.998 4407.81 573.285 4400.95 577.858C4394.32 582.203 4389.17 588.491 4385.51 596.723C4382.08 604.726 4380.37 614.33 4380.37 625.535V627.936C4380.37 646.687 4384.71 660.75 4393.4 670.125C4402.32 679.272 4415.35 683.845 4432.5 683.845C4438.45 683.845 4445.08 683.159 4452.4 681.787C4459.94 680.186 4467.03 677.557 4473.66 673.898C4478.47 671.154 4482.7 670.011 4486.36 670.468C4490.01 670.697 4492.87 671.954 4494.93 674.241C4497.22 676.528 4498.59 679.386 4499.05 682.816C4499.5 686.017 4498.82 689.333 4496.99 692.763C4495.39 696.193 4492.53 699.166 4488.41 701.681C4480.41 706.712 4471.15 710.485 4460.63 713C4450.34 715.287 4440.74 716.43 4431.82 716.43Z"
          fill="white"/>
</svg>
